<?xml version="1.0" encoding="UTF-8" standalone="no"?>
<!-- Created with Inkscape (http://www.inkscape.org/) -->

<svg
   width="300"
   height="300"
   viewBox="0 0 79.374998 79.375"
   version="1.1"
   id="svg1"
   sodipodi:docname="learnishFavicon.svg"
   inkscape:version="1.4.3 (fcd0343856, 2026-01-01)"
   xmlns:inkscape="http://www.inkscape.org/namespaces/inkscape"
   xmlns:sodipodi="http://sodipodi.sourceforge.net/DTD/sodipodi-0.dtd"
   xmlns="http://www.w3.org/2000/svg"
   xmlns:svg="http://www.w3.org/2000/svg">
  <sodipodi:namedview
     id="namedview1"
     pagecolor="#ffffff"
     bordercolor="#000000"
     borderopacity="0.25"
     inkscape:showpageshadow="2"
     inkscape:pageopacity="0.0"
     inkscape:pagecheckerboard="0"
     inkscape:deskcolor="#d1d1d1"
     inkscape:document-units="mm"
     inkscape:zoom="1"
     inkscape:cx="208"
     inkscape:cy="241.5"
     inkscape:window-width="1280"
     inkscape:window-height="955"
     inkscape:window-x="0"
     inkscape:window-y="0"
     inkscape:window-maximized="1"
     inkscape:current-layer="layer1" />
  <defs
     id="defs1">
    <rect
       x="115"
       y="46"
       width="241"
       height="188"
       id="rect18" />
    <rect
       x="105"
       y="34"
       width="307"
       height="323"
       id="rect15" />
    <rect
       x="88"
       y="30"
       width="292"
       height="540"
       id="rect13" />
    <rect
       x="83.5"
       y="18"
       width="341.5"
       height="401.5"
       id="rect3" />
    <rect
       x="16"
       y="22"
       width="414"
       height="594"
       id="rect1" />
  </defs>
  <g
     inkscape:label="Layer 1"
     inkscape:groupmode="layer"
     id="layer1">
    <text
       xml:space="preserve"
       style="font-style:normal;font-variant:normal;font-weight:normal;font-stretch:normal;font-size:105.833px;font-family:'URW Gothic';-inkscape-font-specification:'URW Gothic';writing-mode:lr-tb;direction:ltr;fill:#ff0000;stroke-width:0.264583"
       x="3.254673"
       y="67.73336"
       id="text2"><tspan
         sodipodi:role="line"
         id="tspan2"
         x="3.254673"
         y="67.73336"
         style="font-style:normal;font-variant:normal;font-weight:normal;font-stretch:normal;font-size:105.833px;font-family:'URW Gothic';-inkscape-font-specification:'URW Gothic';fill:#ff0000;stroke-width:0.264583">e</tspan></text>
    <path
       id="text16"
       style="font-style:normal;font-variant:normal;font-weight:normal;font-stretch:normal;font-size:14.1111px;font-family:'Noto Serif Lao';-inkscape-font-specification:'Noto Serif Lao';writing-mode:lr-tb;direction:ltr;white-space:pre;inline-size:72.2966;fill:#ff0000;stroke-width:0.264583"
       d="m 30.780549,16.833081 -5.17e-4,5.17e-4 c -0.01227,0.01317 -0.04508,0.13566 -0.03204,0.180867 0.0068,0.02369 0.01359,0.04771 0.02067,0.07183 0.0079,-0.08048 0.01425,-0.161048 0.01499,-0.241845 4.3e-5,-0.0047 6.5e-5,-0.008 -5.16e-4,-0.0098 l -5.17e-4,-5.17e-4 v -5.17e-4 h -5.17e-4 v -5.17e-4 h -5.17e-4 -5.16e-4 z m -1.027844,9.353951 c -0.07048,0.07364 -0.119676,0.137254 -0.119373,0.155546 3.1e-5,2.71e-4 -5.7e-5,0.0013 0,0.0016 v 5.17e-4 l 5.17e-4,5.17e-4 v 5.16e-4 5.17e-4 h 5.17e-4 l 5.16e-4,5.17e-4 h 5.17e-4 v 5.17e-4 h 5.17e-4 c 1.85e-4,4.6e-5 0.0014,4.85e-4 0.0016,5.17e-4 0.006,5.06e-4 0.01837,-0.0047 0.03721,-0.01654 0.04304,-0.02709 0.06342,-0.09817 0.07803,-0.144177 z" />
  </g>
</svg>
